<svg width="737" height="338" version="1.1" xmlns="http://www.w3.org/2000/svg" desc="Created with imagetracer.js version 1.2.6" ><path fill="rgb(0,0,0)" stroke="rgb(0,0,0)" stroke-width="1" opacity="0" d="M 0 0 L 737 0 L 737 338 L 0 338 L 0 0 Z M 172 115 L 165 124 Q 157 134 145 139 L 138 137 Q 133 131 126 128 L 121 128 L 114 131 L 95 150 L 93 154 Q 91 165 97 170 L 140 212 Q 142 213 141 210 L 143 210 L 152 201 Q 151 198 154 199 L 156 195 L 173 182 L 181 182 L 193 191 L 197 192 Q 204 191 209 187 Q 218 180 225 169 L 213 155 L 207 163 Q 199 173 187 179 L 179 178 L 168 169 Q 160 168 156 171 L 142 184 L 136 183 L 135 177 L 148 164 L 154 161 L 159 161 L 165 164 L 173 171 L 181 171 L 193 163 Q 192 160 195 161 L 205 148 L 193 135 L 191 135 L 183 146 L 181 149 Q 175 155 166 159 L 161 158 Q 157 159 158 156 L 145 148 Q 137 148 134 152 L 123 163 L 117 163 L 114 160 L 115 156 Q 122 146 133 141 L 140 141 L 154 151 L 160 151 L 169 146 Q 179 139 184 127 L 172 115 Z M 501 135 L 490 139 Q 481 145 478 156 L 478 172 L 483 182 L 495 190 L 506 191 L 507 192 L 508 191 L 516 191 L 525 187 L 531 181 L 535 172 Q 534 167 536 166 L 535 155 L 530 146 L 528 143 Q 520 133 501 135 Z M 565 135 L 557 137 L 552 140 Q 543 146 541 158 Q 539 172 545 180 L 556 189 L 570 192 L 583 190 L 590 186 L 597 177 L 599 170 L 599 158 L 594 146 L 584 137 L 576 135 L 565 135 Z M 257 136 L 247 140 L 240 147 L 237 154 Q 239 159 236 161 L 237 173 L 241 182 Q 246 188 255 190 Q 259 189 261 191 L 297 191 L 297 179 L 297 178 L 258 178 L 253 173 L 254 169 L 297 169 L 297 158 L 297 157 L 253 157 L 255 151 L 260 148 L 297 148 L 297 137 L 297 136 L 257 136 Z M 309 136 L 309 191 L 310 191 L 323 191 L 324 190 L 324 149 L 340 149 L 340 191 L 355 191 L 355 150 L 356 149 L 368 149 L 372 156 L 372 191 L 386 191 L 387 190 L 387 151 L 384 144 Q 381 138 374 136 L 309 136 Z M 398 136 L 398 191 L 413 191 L 414 190 L 414 137 L 414 136 L 398 136 Z M 445 136 L 434 141 Q 431 140 432 143 L 429 144 L 424 158 L 424 169 L 428 181 Q 433 188 443 190 Q 447 189 449 191 L 472 191 L 473 190 L 473 178 L 450 178 L 446 176 L 440 169 Q 438 157 443 153 L 446 150 L 453 148 L 473 148 L 473 136 L 445 136 Z M 609 136 L 609 171 L 613 181 L 620 187 L 627 190 Q 632 189 634 191 L 651 191 L 651 178 L 635 178 L 628 175 L 625 170 Q 627 164 624 163 L 624 136 L 609 136 Z " /><path fill="rgb(0,0,0)" stroke="rgb(0,0,0)" stroke-width="1" opacity="0" d="M 501.5 148 Q 514.8 145.7 518 153.5 Q 520.9 158.1 520 166.5 L 517 174.5 L 514.5 177 Q 511.2 180.2 503.5 179 L 497 175.5 L 494 170.5 L 493 160.5 Q 494.2 152.7 499.5 149 L 501.5 148 Z " /><path fill="rgb(0,0,0)" stroke="rgb(0,0,0)" stroke-width="1" opacity="0" d="M 565.5 148 Q 577.3 146.2 581 152.5 Q 584.6 157.9 583 168.5 Q 581.5 175 576.5 178 L 566.5 179 L 559 173.5 Q 555 168.5 557 157.5 L 562.5 149 L 565.5 148 Z " /><path fill="rgb(19,71,100)" stroke="rgb(19,71,100)" stroke-width="1" opacity="0.9333333333333333" d="M 171.5 115 L 184 126.5 Q 179.2 139.2 168.5 146 L 159.5 151 L 153.5 151 L 139.5 141 L 132.5 141 Q 121.6 146.1 115 155.5 L 114 159.5 L 116.5 163 L 122.5 163 L 133.5 152 Q 137.3 148.3 144.5 148 L 158 156 Q 156.8 159 160.5 158 L 165.5 159 Q 175 155.5 181 148.5 L 183 145.5 L 191 135 L 192.5 135 L 205 147.5 L 194.5 161 Q 192.3 160.3 193 162.5 L 180.5 171 L 172.5 171 L 164.5 164 L 158.5 161 L 153.5 161 L 147.5 164 L 135 176.5 L 136 183 L 141.5 184 L 155.5 171 Q 159.5 168 167.5 169 L 178.5 178 L 186.5 179 Q 199.4 173.4 207 162.5 L 212.5 155 L 225 168.5 Q 218.5 179.5 208.5 187 Q 204.2 191.2 196.5 192 L 192.5 191 L 180.5 182 L 172.5 182 L 156 195 L 153.5 199 Q 151.3 198.3 152 200.5 L 142.5 210 L 141 210 Q 142.1 212.7 139.5 212 L 97 169.5 Q 91.4 165.1 93 153.5 L 95 149.5 L 113.5 131 L 120.5 128 L 125.5 128 Q 132.9 131.1 137.5 137 L 144.5 139 Q 157.4 133.9 165 123.5 L 171.5 115 Z " /><path fill="rgb(19,71,100)" stroke="rgb(19,71,100)" stroke-width="1" opacity="0.9333333333333333" d="M 500.5 135 Q 519.5 133.5 528 142.5 L 530 145.5 L 535 154.5 L 536 165.5 Q 533.7 166.8 535 171.5 L 531 180.5 L 524.5 187 L 515.5 191 L 507.5 191 L 506.5 192 L 505.5 191 L 494.5 190 L 483 181.5 L 478 171.5 L 478 155.5 Q 481.1 144.6 489.5 139 L 500.5 135 Z M 502 148 L 500 149 Q 494 153 493 161 L 494 171 L 497 176 L 504 179 Q 511 180 515 177 L 517 175 L 520 167 Q 521 158 518 154 Q 515 146 502 148 Z " /><path fill="rgb(19,71,100)" stroke="rgb(19,71,100)" stroke-width="1" opacity="0.9333333333333333" d="M 564.5 135 L 575.5 135 L 583.5 137 L 594 145.5 L 599 157.5 L 599 169.5 L 597 176.5 L 590 186 L 582.5 190 L 569.5 192 L 555.5 189 L 545 179.5 Q 539.3 172.2 541 157.5 Q 543.2 145.7 551.5 140 L 556.5 137 L 564.5 135 Z M 566 148 L 563 149 L 557 158 Q 555 168 559 174 L 567 179 L 577 178 Q 581 175 583 169 Q 585 158 581 153 Q 577 146 566 148 Z " /><path fill="rgb(19,71,100)" stroke="rgb(19,71,100)" stroke-width="1" opacity="0.9333333333333333" d="M 256.5 136 L 296.5 136 L 297 136.5 L 297 148 L 259.5 148 L 255 150.5 L 253 157 L 296.5 157 L 297 157.5 L 297 169 L 253.5 169 L 253 172.5 L 257.5 178 L 296.5 178 L 297 178.5 L 297 191 L 260.5 191 Q 259.3 188.8 254.5 190 Q 245.6 187.9 241 181.5 L 237 172.5 L 236 160.5 Q 238.5 159 237 153.5 L 240 146.5 L 246.5 140 L 256.5 136 Z " /><path fill="rgb(19,71,100)" stroke="rgb(19,71,100)" stroke-width="1" opacity="0.9333333333333333" d="M 309 136 L 373.5 136 Q 380.7 137.8 384 143.5 L 387 150.5 L 387 189.5 L 385.5 191 L 372 191 L 372 155.5 L 367.5 149 L 355.5 149 L 355 149.5 L 355 191 L 340 191 L 340 149 L 324 149 L 324 189.5 L 322.5 191 L 309.5 191 L 309 190.5 L 309 136 Z " /><path fill="rgb(19,71,100)" stroke="rgb(19,71,100)" stroke-width="1" opacity="0.9333333333333333" d="M 398 136 L 413.5 136 L 414 136.5 L 414 189.5 L 412.5 191 L 398 191 L 398 136 Z " /><path fill="rgb(19,71,100)" stroke="rgb(19,71,100)" stroke-width="1" opacity="0.9333333333333333" d="M 444.5 136 L 473 136 L 473 148 L 452.5 148 L 445.5 150 L 443 152.5 Q 438.3 157.3 440 168.5 L 445.5 176 L 449.5 178 L 473 178 L 473 189.5 L 471.5 191 L 448.5 191 Q 447.2 188.8 442.5 190 Q 432.6 187.9 428 180.5 L 424 168.5 L 424 157.5 L 429 144 L 432 142.5 Q 431.3 140.3 433.5 141 L 444.5 136 Z " /><path fill="rgb(19,71,100)" stroke="rgb(19,71,100)" stroke-width="1" opacity="0.9333333333333333" d="M 609 136 L 624 136 L 624 162.5 Q 626.5 164 625 169.5 L 628 175 L 634.5 178 L 651 178 L 651 191 L 633.5 191 Q 632 188.5 626.5 190 L 619.5 187 L 613 180.5 L 609 170.5 L 609 136 Z " /></svg>